<svg width="28" height="28" viewBox="0 0 28 28" fill="none" xmlns="http://www.w3.org/2000/svg">
<path fill-rule="evenodd" clip-rule="evenodd" d="M1.8269 4.66675C1.8269 4.43468 1.91909 4.21212 2.08319 4.04803C2.24728 3.88394 2.46984 3.79175 2.7019 3.79175H4.07974C4.71264 3.79178 5.32423 4.02048 5.80187 4.43574C6.2795 4.85099 6.59103 5.42483 6.67907 6.05158L6.75024 6.55908H23.0427C23.4784 6.55909 23.9072 6.66752 24.2905 6.8746C24.6737 7.08167 24.9995 7.38089 25.2382 7.74526C25.477 8.10963 25.6214 8.52771 25.6583 8.96179C25.6952 9.39587 25.6234 9.8323 25.4496 10.2317L22.3369 17.3811C22.1329 17.8498 21.7964 18.2487 21.3689 18.5289C20.9413 18.8091 20.4413 18.9584 19.9301 18.9584H9.0089C8.376 18.9584 7.76441 18.7297 7.28678 18.3144C6.80914 17.8992 6.49762 17.3253 6.40957 16.6986L4.94657 6.29541C4.9173 6.08636 4.81344 5.89493 4.65414 5.75643C4.49483 5.61793 4.29083 5.54168 4.07974 5.54175H2.70307C2.47101 5.54175 2.24845 5.44956 2.08435 5.28547C1.92026 5.12137 1.82807 4.89881 1.82807 4.66675M6.99757 8.30908L8.14324 16.4547C8.17251 16.6638 8.27637 16.8552 8.43567 16.9937C8.59497 17.1322 8.79898 17.2085 9.01007 17.2084H19.9312C20.1016 17.2086 20.2683 17.159 20.4109 17.0657C20.5535 16.9724 20.6658 16.8396 20.7339 16.6834L23.8454 9.53175C23.903 9.39873 23.9266 9.25349 23.9142 9.10908C23.9018 8.96466 23.8537 8.8256 23.7742 8.70437C23.6948 8.58315 23.5864 8.48356 23.4589 8.41457C23.3315 8.34557 23.1889 8.30932 23.0439 8.30908H6.99757Z" fill="#1F2336"/>
<path d="M7.03955 22.7499C7.03955 22.2084 7.25465 21.6891 7.63754 21.3062C8.02043 20.9234 8.53973 20.7083 9.08122 20.7083C9.6227 20.7083 10.142 20.9234 10.5249 21.3062C10.9078 21.6891 11.1229 22.2084 11.1229 22.7499C11.1229 23.2914 10.9078 23.8107 10.5249 24.1936C10.142 24.5765 9.6227 24.7916 9.08122 24.7916C8.53973 24.7916 8.02043 24.5765 7.63754 24.1936C7.25465 23.8107 7.03955 23.2914 7.03955 22.7499ZM19.0399 20.7083C18.4984 20.7083 17.9791 20.9234 17.5962 21.3062C17.2133 21.6891 16.9982 22.2084 16.9982 22.7499C16.9982 23.2914 17.2133 23.8107 17.5962 24.1936C17.9791 24.5765 18.4984 24.7916 19.0399 24.7916C19.5814 24.7916 20.1007 24.5765 20.4836 24.1936C20.8664 23.8107 21.0815 23.2914 21.0815 22.7499C21.0815 22.2084 20.8664 21.6891 20.4836 21.3062C20.1007 20.9234 19.5814 20.7083 19.0399 20.7083Z" fill="#1F2336"/>
</svg>
