<svg width="32" height="32" viewBox="0 0 32 32" fill="none" xmlns="http://www.w3.org/2000/svg">
<rect width="32" height="32" rx="16" fill="#F4F3F3"/>
<path d="M13.7267 10.9693L13.4045 10.2446C13.1939 9.77066 13.0886 9.5337 12.9311 9.35237C12.7337 9.12511 12.4764 8.95791 12.1886 8.86984C11.9589 8.79956 11.6996 8.79956 11.181 8.79956C10.4224 8.79956 10.0431 8.79956 9.72463 8.94539C9.34954 9.11718 9.0108 9.49018 8.87583 9.88004C8.76125 10.211 8.79408 10.5511 8.85971 11.2313C9.55837 18.4717 13.5279 22.4412 20.7683 23.1399C21.4485 23.2056 21.7887 23.2384 22.1195 23.1238C22.5095 22.9888 22.8824 22.65 23.0543 22.275C23.2 21.9565 23.2 21.5772 23.2 20.8186C23.2 20.3 23.2 20.0407 23.1298 19.811C23.0417 19.5232 22.8745 19.2659 22.6472 19.0685C22.4659 18.911 22.229 18.8057 21.7551 18.5951L21.0303 18.2729C20.5171 18.0448 20.2604 17.9308 19.9997 17.906C19.7501 17.8823 19.4985 17.9173 19.2649 18.0083C19.0208 18.1033 18.8051 18.2831 18.3736 18.6426C17.9442 19.0005 17.7295 19.1795 17.4671 19.2753C17.2344 19.3603 16.9269 19.3918 16.6819 19.3556C16.4055 19.3149 16.1939 19.2019 15.7707 18.9756C14.4539 18.272 13.7277 17.5458 13.0239 16.2289C12.7978 15.8057 12.6847 15.594 12.6439 15.3177C12.6078 15.0727 12.6393 14.7652 12.7243 14.5326C12.8201 14.2702 12.9991 14.0554 13.357 13.626C13.7165 13.1945 13.8963 12.9788 13.9914 12.7347C14.0823 12.5011 14.1173 12.2495 14.0936 11.9999C14.0688 11.7392 13.9548 11.4826 13.7267 10.9693Z" stroke="#1F2336" stroke-width="1.2" stroke-linecap="round"/>
</svg>
