<svg width="34" height="34" viewBox="0 0 34 34" fill="none" xmlns="http://www.w3.org/2000/svg">
<rect width="34" height="34" rx="17" fill="#F4F4F4"/>
<path fill-rule="evenodd" clip-rule="evenodd" d="M22.4092 11.5898H18.3524V10.2375H22.4092C22.9471 10.2375 23.4631 10.4513 23.8435 10.8317C24.2239 11.2121 24.4376 11.728 24.4376 12.266C24.4376 12.8039 24.2239 13.3199 23.8435 13.7003C23.4631 14.0807 22.9471 14.2944 22.4092 14.2944H21.1597L21.7601 18.4932L19.4112 22.408H14.2955C14.2955 23.1253 14.0106 23.8132 13.5034 24.3204C12.9962 24.8276 12.3083 25.1125 11.591 25.1125C10.8737 25.1125 10.1858 24.8276 9.6786 24.3204C9.17139 23.8132 8.88645 23.1253 8.88645 22.408H7.53418V20.3796C7.53418 19.483 7.89036 18.6231 8.52436 17.9891C9.15836 17.3551 10.0182 16.9989 10.9149 16.9989H14.4443L13.7682 14.2944H10.2387V12.9421H14.8229L16.8513 21.0557H18.6458L20.3537 18.2092L19.7939 14.2944H19.7046V12.9421H22.4092C22.5885 12.9421 22.7605 12.8709 22.8873 12.7441C23.0141 12.6173 23.0853 12.4453 23.0853 12.266C23.0853 12.0866 23.0141 11.9147 22.8873 11.7879C22.7605 11.6611 22.5885 11.5898 22.4092 11.5898ZM23.7615 21.0557C23.4028 21.0557 23.0589 21.1982 22.8053 21.4518C22.5517 21.7054 22.4092 22.0494 22.4092 22.408C22.4092 22.7666 22.5517 23.1106 22.8053 23.3642C23.0589 23.6178 23.4028 23.7603 23.7615 23.7603C24.1201 23.7603 24.4641 23.6178 24.7177 23.3642C24.9713 23.1106 25.1137 22.7666 25.1137 22.408C25.1137 22.0494 24.9713 21.7054 24.7177 21.4518C24.4641 21.1982 24.1201 21.0557 23.7615 21.0557ZM21.0569 22.408C21.0569 21.6907 21.3419 21.0028 21.8491 20.4956C22.3563 19.9884 23.0442 19.7035 23.7615 19.7035C24.4787 19.7035 25.1667 19.9884 25.6739 20.4956C26.1811 21.0028 26.466 21.6907 26.466 22.408C26.466 23.1253 26.1811 23.8132 25.6739 24.3204C25.1667 24.8276 24.4787 25.1125 23.7615 25.1125C23.0442 25.1125 22.3563 24.8276 21.8491 24.3204C21.3419 23.8132 21.0569 23.1253 21.0569 22.408ZM10.2387 22.408C10.2387 22.7666 10.3812 23.1106 10.6348 23.3642C10.8884 23.6178 11.2324 23.7603 11.591 23.7603C11.9496 23.7603 12.2936 23.6178 12.5472 23.3642C12.8008 23.1106 12.9433 22.7666 12.9433 22.408H10.2387Z" fill="#1F2336"/>
</svg>
