<svg width="32" height="32" viewBox="0 0 32 32" fill="none" xmlns="http://www.w3.org/2000/svg">
<rect width="32" height="32" rx="16" fill="#F4F3F3"/>
<path d="M7.98315 11.25L13.456 14.3509C15.4736 15.4941 16.3261 15.4941 18.3437 14.3509L23.8165 11.25" stroke="#1F2336" stroke-width="1.5" stroke-linejoin="round"/>
<path d="M7.99564 17.1681C8.04739 19.595 8.07327 20.8084 8.96875 21.7074C9.86422 22.6062 11.1105 22.6375 13.6031 22.7001C15.1393 22.7387 16.6604 22.7387 18.1966 22.7001C20.6892 22.6375 21.9354 22.6062 22.8309 21.7074C23.7264 20.8084 23.7523 19.595 23.804 17.1681C23.8207 16.3878 23.8207 15.6121 23.804 14.8317C23.7523 12.4049 23.7264 11.1914 22.8309 10.2925C21.9354 9.39364 20.6892 9.36233 18.1966 9.2997C16.6604 9.2611 15.1393 9.2611 13.6031 9.2997C11.1105 9.36232 9.86422 9.39363 8.96874 10.2925C8.07326 11.1914 8.04739 12.4048 7.99563 14.8317C7.97899 15.6121 7.979 16.3878 7.99564 17.1681Z" stroke="#1F2336" stroke-width="1.5" stroke-linejoin="round"/>
</svg>
