<svg width="24" height="24" viewBox="0 0 24 24" fill="none" xmlns="http://www.w3.org/2000/svg">
<path d="M19.0749 21.9L17.1499 20H5.99989C5.44989 20 4.97923 19.8043 4.58789 19.413C4.19656 19.0216 4.00056 18.5506 3.99989 18V17.2C3.99989 16.6333 4.14589 16.1126 4.43789 15.638C4.72989 15.1633 5.11723 14.8006 5.59989 14.55C6.34989 14.1666 7.11256 13.8583 7.88789 13.625C8.66323 13.3916 9.45056 13.2166 10.2499 13.1L2.07489 4.92495C1.87489 4.72495 1.77923 4.48762 1.78789 4.21295C1.79656 3.93829 1.90056 3.70062 2.09989 3.49995C2.29923 3.29929 2.53689 3.19929 2.81289 3.19995C3.08889 3.20062 3.32623 3.30062 3.52489 3.49995L20.4999 20.5C20.6999 20.7 20.7999 20.9333 20.7999 21.2C20.7999 21.4666 20.6999 21.7 20.4999 21.9C20.2999 22.1 20.0626 22.2 19.7879 22.2C19.5132 22.2 19.2756 22.1 19.0749 21.9ZM18.3999 14.55C18.8832 14.7833 19.2666 15.1373 19.5499 15.612C19.8332 16.0866 19.9832 16.5993 19.9999 17.15L16.6499 13.8C16.9499 13.9166 17.2459 14.0333 17.5379 14.15C17.8299 14.2666 18.1172 14.4 18.3999 14.55ZM14.1999 11.35L8.64989 5.79995C9.03323 5.23329 9.51656 4.79162 10.0999 4.47495C10.6832 4.15829 11.3166 3.99995 11.9999 3.99995C13.0999 3.99995 14.0416 4.39162 14.8249 5.17495C15.6082 5.95829 15.9999 6.89995 15.9999 7.99995C15.9999 8.68329 15.8416 9.31662 15.5249 9.89995C15.2082 10.4833 14.7666 10.9666 14.1999 11.35Z" fill="#EB203E"/>
</svg>
