<svg width="28" height="28" viewBox="0 0 28 28" fill="none" xmlns="http://www.w3.org/2000/svg">
<path fill-rule="evenodd" clip-rule="evenodd" d="M21 7H15.75V5.25H21C21.6962 5.25 22.3639 5.52656 22.8562 6.01884C23.3484 6.51113 23.625 7.17881 23.625 7.875C23.625 8.57119 23.3484 9.23887 22.8562 9.73116C22.3639 10.2234 21.6962 10.5 21 10.5H19.383L20.16 15.9337L17.1202 21H10.5C10.5 21.9283 10.1313 22.8185 9.47487 23.4749C8.8185 24.1313 7.92826 24.5 7 24.5C6.07174 24.5 5.1815 24.1313 4.52513 23.4749C3.86875 22.8185 3.5 21.9283 3.5 21H1.75V18.375C1.75 17.2147 2.21094 16.1019 3.03141 15.2814C3.85188 14.4609 4.96468 14 6.125 14H10.6925L9.8175 10.5H5.25V8.75H11.1825L13.8075 19.25H16.1298L18.34 15.5663L17.6155 10.5H17.5V8.75H21C21.2321 8.75 21.4546 8.65781 21.6187 8.49372C21.7828 8.32962 21.875 8.10706 21.875 7.875C21.875 7.64294 21.7828 7.42038 21.6187 7.25628C21.4546 7.09219 21.2321 7 21 7ZM22.75 19.25C22.2859 19.25 21.8408 19.4344 21.5126 19.7626C21.1844 20.0908 21 20.5359 21 21C21 21.4641 21.1844 21.9092 21.5126 22.2374C21.8408 22.5656 22.2859 22.75 22.75 22.75C23.2141 22.75 23.6592 22.5656 23.9874 22.2374C24.3156 21.9092 24.5 21.4641 24.5 21C24.5 20.5359 24.3156 20.0908 23.9874 19.7626C23.6592 19.4344 23.2141 19.25 22.75 19.25ZM19.25 21C19.25 20.0717 19.6187 19.1815 20.2751 18.5251C20.9315 17.8687 21.8217 17.5 22.75 17.5C23.6783 17.5 24.5685 17.8687 25.2249 18.5251C25.8813 19.1815 26.25 20.0717 26.25 21C26.25 21.9283 25.8813 22.8185 25.2249 23.4749C24.5685 24.1313 23.6783 24.5 22.75 24.5C21.8217 24.5 20.9315 24.1313 20.2751 23.4749C19.6187 22.8185 19.25 21.9283 19.25 21ZM5.25 21C5.25 21.4641 5.43437 21.9092 5.76256 22.2374C6.09075 22.5656 6.53587 22.75 7 22.75C7.46413 22.75 7.90925 22.5656 8.23744 22.2374C8.56563 21.9092 8.75 21.4641 8.75 21H5.25Z" fill="black"/>
</svg>
