<svg width="28" height="28" viewBox="0 0 28 28" fill="none" xmlns="http://www.w3.org/2000/svg">
<path d="M6.41683 9.33342C6.41683 8.55987 6.72412 7.818 7.2711 7.27102C7.81808 6.72404 8.55995 6.41675 9.3335 6.41675C10.107 6.41675 10.8489 6.72404 11.3959 7.27102C11.9429 7.818 12.2502 8.55987 12.2502 9.33342C12.2502 10.107 11.9429 10.8488 11.3959 11.3958C10.8489 11.9428 10.107 12.2501 9.3335 12.2501C8.55995 12.2501 7.81808 11.9428 7.2711 11.3958C6.72412 10.8488 6.41683 10.107 6.41683 9.33342ZM9.3335 4.66675C8.09582 4.66675 6.90883 5.15841 6.03366 6.03358C5.15849 6.90875 4.66683 8.09574 4.66683 9.33342C4.66683 10.5711 5.15849 11.7581 6.03366 12.6332C6.90883 13.5084 8.09582 14.0001 9.3335 14.0001C10.5712 14.0001 11.7582 13.5084 12.6333 12.6332C13.5085 11.7581 14.0002 10.5711 14.0002 9.33342C14.0002 8.09574 13.5085 6.90875 12.6333 6.03358C11.7582 5.15841 10.5712 4.66675 9.3335 4.66675ZM18.0835 10.5001C18.0835 10.036 18.2679 9.59083 18.5961 9.26264C18.9242 8.93446 19.3694 8.75008 19.8335 8.75008C20.2976 8.75008 20.7427 8.93446 21.0709 9.26264C21.3991 9.59083 21.5835 10.036 21.5835 10.5001C21.5835 10.9642 21.3991 11.4093 21.0709 11.7375C20.7427 12.0657 20.2976 12.2501 19.8335 12.2501C19.3694 12.2501 18.9242 12.0657 18.5961 11.7375C18.2679 11.4093 18.0835 10.9642 18.0835 10.5001ZM19.8335 7.00008C18.9052 7.00008 18.015 7.36883 17.3586 8.02521C16.7022 8.68159 16.3335 9.57182 16.3335 10.5001C16.3335 11.4283 16.7022 12.3186 17.3586 12.975C18.015 13.6313 18.9052 14.0001 19.8335 14.0001C20.7618 14.0001 21.652 13.6313 22.3084 12.975C22.9647 12.3186 23.3335 11.4283 23.3335 10.5001C23.3335 9.57182 22.9647 8.68159 22.3084 8.02521C21.652 7.36883 20.7618 7.00008 19.8335 7.00008ZM16.6228 22.2111C17.443 22.5436 18.4942 22.7501 19.8347 22.7501C22.497 22.7501 24.0183 21.9369 24.8478 20.9324C25.2503 20.4447 25.4545 19.9524 25.5595 19.5756C25.6196 19.3573 25.656 19.1332 25.668 18.9071V18.8756C25.6677 18.2015 25.3998 17.555 24.9231 17.0783C24.4464 16.6017 23.8 16.3337 23.1258 16.3334H16.5435C16.5108 16.3334 16.4789 16.3342 16.4478 16.3357C16.9075 16.8141 17.2412 17.4149 17.3998 18.0834H23.1258C23.5598 18.0834 23.9122 18.4323 23.918 18.8639L23.9145 18.9012C23.9098 18.9464 23.8954 19.0164 23.8713 19.1112C23.7993 19.3707 23.6719 19.6115 23.498 19.8171C23.0897 20.3141 22.1307 21.0001 19.8347 21.0001C18.6913 21.0001 17.8793 20.8298 17.303 20.5976C17.177 21.0642 16.9693 21.6277 16.6228 22.2111ZM4.9585 16.3334C4.2623 16.3334 3.59462 16.61 3.10234 17.1023C2.61006 17.5945 2.3335 18.2622 2.3335 18.9584V19.2827C2.33472 19.3639 2.34017 19.4449 2.34983 19.5254C2.4468 20.3934 2.75878 21.2234 3.2575 21.9404C4.21183 23.3031 6.03416 24.5001 9.3335 24.5001C12.6328 24.5001 14.4552 23.3042 15.4095 21.9392C15.9082 21.2223 16.2202 20.3922 16.3172 19.5243C16.3254 19.444 16.3308 19.3634 16.3335 19.2827V18.9584C16.3335 18.2622 16.0569 17.5945 15.5647 17.1023C15.0724 16.61 14.4047 16.3334 13.7085 16.3334H4.9585ZM4.0835 19.2582V18.9584C4.0835 18.7264 4.17568 18.5038 4.33978 18.3397C4.50387 18.1756 4.72643 18.0834 4.9585 18.0834H13.7085C13.9406 18.0834 14.1631 18.1756 14.3272 18.3397C14.4913 18.5038 14.5835 18.7264 14.5835 18.9584V19.2582L14.5753 19.3516C14.5082 19.9208 14.3023 20.4649 13.9757 20.9359C13.4005 21.7584 12.1592 22.7501 9.3335 22.7501C6.50783 22.7501 5.2665 21.7584 4.69016 20.9359C4.36397 20.4648 4.15845 19.9207 4.09166 19.3516L4.0835 19.2582Z" fill="#1F2336"/>
</svg>
