<svg width="19" height="67" viewBox="0 0 19 67" fill="none" xmlns="http://www.w3.org/2000/svg">
<rect width="19" height="19" rx="9.5" fill="#1F2336" fill-opacity="0.46"/>
<path d="M13.8333 8.95776L14.9166 9.49943C14.9166 6.50789 12.4914 4.08276 9.49992 4.08276C7.27874 4.08276 5.36982 5.4197 4.53397 7.33276M5.16659 10.0411L4.08325 9.49943C4.08325 12.4909 6.50837 14.9161 9.49992 14.9161C11.7211 14.9161 13.63 13.5792 14.4659 11.6661" stroke="#1F2336" stroke-width="1.04779" stroke-linecap="round" stroke-linejoin="round"/>
<path d="M9.5 9.229H9.50511" stroke="#1F2336" stroke-width="1.39706" stroke-linecap="round" stroke-linejoin="round"/>
<path d="M9.5 6.7915C10.8191 6.7915 11.9375 7.88377 11.9375 9.20891C11.9375 10.5551 10.8009 11.4999 9.75106 12.1422C9.67458 12.1855 9.58802 12.2082 9.5 12.2082C9.41198 12.2082 9.32542 12.1855 9.24894 12.1422C8.20106 11.4936 7.0625 10.5598 7.0625 9.20891C7.0625 7.88377 8.18089 6.7915 9.5 6.7915Z" stroke="#1F2336" stroke-width="1.04779"/>
<line x1="8.5" y1="67" x2="8.5" y2="19" stroke="#1F2336" stroke-dasharray="2 2"/>
</svg>
