<svg width="27" height="27" viewBox="0 0 27 27" fill="none" xmlns="http://www.w3.org/2000/svg">
<rect x="0.5" y="0.5" width="26" height="26" rx="13" stroke="#D7D7D7"/>
<path d="M20.1765 12.8971L21.7941 13.7059C21.7941 9.2389 18.1729 5.61768 13.7059 5.61768C10.3892 5.61768 7.53879 7.61401 6.29069 10.4706M7.23532 14.5147L5.61768 13.7059C5.61768 18.1729 9.2389 21.7941 13.7059 21.7941C17.0226 21.7941 19.873 19.7978 21.1211 16.9412" stroke="#888787" stroke-width="1.32353" stroke-linecap="round" stroke-linejoin="round"/>
<path d="M13.7058 13.3022H13.7138" stroke="#888787" stroke-width="1.76471" stroke-linecap="round" stroke-linejoin="round"/>
<path d="M13.7059 9.66235C15.6756 9.66235 17.3456 11.2933 17.3456 13.2721C17.3456 15.2822 15.6484 16.693 14.0808 17.6522C13.9666 17.7167 13.8373 17.7506 13.7059 17.7506C13.5744 17.7506 13.4452 17.7167 13.331 17.6522C11.7663 16.6836 10.0662 15.2892 10.0662 13.2721C10.0662 11.2933 11.7362 9.66235 13.7059 9.66235Z" stroke="#888787" stroke-width="1.32353"/>
</svg>
