<svg width="32" height="32" viewBox="0 0 32 32" fill="none" xmlns="http://www.w3.org/2000/svg">
<rect x="0.392345" y="0.392345" width="31.2153" height="31.2153" rx="15.6077" fill="#F4F4F4"/>
<rect x="0.392345" y="0.392345" width="31.2153" height="31.2153" rx="15.6077" stroke="#D7D7D7" stroke-width="0.784689"/>
<path d="M12.4034 20.8938C10.9916 21.2116 10.0876 21.6999 10.0876 22.2475C10.0876 23.2052 12.8525 23.9815 16.2631 23.9815C19.6737 23.9815 22.4385 23.2052 22.4385 22.2475C22.4385 21.6999 21.5345 21.2116 20.1227 20.8938" stroke="#141B34" stroke-width="1.26316" stroke-linecap="round"/>
<path d="M18.1929 13.9462C18.1929 15.012 17.3289 15.876 16.2631 15.876C15.1973 15.876 14.3333 15.012 14.3333 13.9462C14.3333 12.8804 15.1973 12.0164 16.2631 12.0164C17.3289 12.0164 18.1929 12.8804 18.1929 13.9462Z" stroke="#141B34" stroke-width="1.26316"/>
<path d="M17.2338 20.5027C16.9734 20.7534 16.6254 20.8936 16.2633 20.8936C15.9011 20.8936 15.5531 20.7534 15.2927 20.5027C12.9086 18.1925 9.71345 15.6117 11.2716 11.8649C12.1141 9.83904 14.1364 8.54272 16.2633 8.54272C18.3901 8.54272 20.4124 9.83905 21.2549 11.8649C22.8111 15.607 19.6238 18.2004 17.2338 20.5027Z" stroke="#141B34" stroke-width="1.26316"/>
</svg>
