<svg width="22" height="24" viewBox="0 0 22 24" fill="none" xmlns="http://www.w3.org/2000/svg">
<path fill-rule="evenodd" clip-rule="evenodd" d="M13.5423 1.43936L18.874 4.51936C19.6468 4.96552 20.2886 5.60712 20.735 6.37976C21.1814 7.15239 21.4168 8.02886 21.4173 8.92119V15.0789C21.417 15.9714 21.1817 16.8481 20.7353 17.621C20.2889 18.3938 19.647 19.0356 18.874 19.4819L13.5423 22.5607C12.7693 23.0067 11.8926 23.2415 11.0002 23.2415C10.1077 23.2415 9.231 23.0067 8.45801 22.5607L3.12634 19.4807C2.35356 19.0345 1.71175 18.3929 1.26533 17.6203C0.81891 16.8477 0.583595 15.9712 0.583008 15.0789V8.92119C0.583008 7.10469 1.55251 5.42702 3.12634 4.51819L8.45801 1.43936C9.231 0.993341 10.1077 0.758545 11.0002 0.758545C11.8926 0.758545 12.7693 0.993341 13.5423 1.43936ZM12.3757 3.46002C11.9574 3.2188 11.483 3.09182 11.0002 3.09182C10.5173 3.09182 10.043 3.2188 9.62467 3.46002L4.29301 6.54002C3.8751 6.7813 3.52795 7.12817 3.28633 7.54588C3.04471 7.96359 2.91712 8.43747 2.91634 8.92002V15.08C2.91634 16.0612 3.44134 16.97 4.29301 17.46L9.62467 20.54C10.4763 21.03 11.524 21.03 12.3757 20.54L17.7073 17.46C18.1252 17.2187 18.4724 16.8719 18.714 16.4542C18.9556 16.0365 19.0832 15.5626 19.084 15.08V8.92002C19.084 7.93886 18.559 7.03002 17.7073 6.54002L12.3757 3.46002Z" fill="#1F2336"/>
<path fill-rule="evenodd" clip-rule="evenodd" d="M9.24917 11.7619L2.479 8.37628L3.522 6.29028L10.2922 9.67478C10.7378 9.89762 11.2628 9.89762 11.7085 9.67478L18.4787 6.29028L19.5228 8.37628L12.7527 11.7619C12.2087 12.0337 11.609 12.1751 11.0009 12.1751C10.3929 12.1751 9.79314 12.0337 9.24917 11.7619Z" fill="#1F2336"/>
<path fill-rule="evenodd" clip-rule="evenodd" d="M12.1668 11.3328V21.9996H9.8335V11.3328H12.1668Z" fill="#1F2336"/>
</svg>
